<svg xmlns="http://www.w3.org/2000/svg" version="1.1" xmlns:xlink="http://www.w3.org/1999/xlink" xmlns:svgjs="http://svgjs.dev/svgjs" width="8.467" height="8.467"><svg xmlns="http://www.w3.org/2000/svg" width="8.467" height="8.467" viewBox="0 0 8.467 8.467"><path fill="#ef9f76" d="M.896 6.798l2.502 1.445a1.67 1.67 0 0 0 1.668 0l2.502-1.445c.172-.099.278-.283.278-.482s-.106-.382-.278-.482L5.067 4.39a1.67 1.67 0 0 0-1.668 0L.896 5.835c-.172.099-.278.283-.278.482s.106.382.278.482z"></path><path fill="#ef9f76" d="M4.156.007a.44.44 0 0 0-.339.29l-.695 2.007.695.401c.258.149.576.149.834 0l.695-.401L4.651.297a.44.44 0 0 0-.495-.29zM2.843 3.106l-1.112 3.21 2.503 1.445 2.502-1.445-1.112-3.21-.973.562c-.258.149-.576.149-.835 0l-.973-.562z"></path></svg><style>@media (prefers-color-scheme: light) { :root { filter: none; } }
@media (prefers-color-scheme: dark) { :root { filter: none; } }
</style></svg>