<svg xmlns="http://www.w3.org/2000/svg" width="22" height="22" viewBox="0 0 32 32"><path fill="currentColor" d="M5.926 3.556a1.778 1.778 0 0 0-1.778 1.778h-2.37A1.778 1.778 0 0 0 0 7.111v13.037a1.778 1.778 0 0 0 1.778 1.778h2.37V32h2.37V21.926h18.963V32h2.37V21.926h2.37A1.778 1.778 0 0 0 32 20.148V7.111a1.778 1.778 0 0 0-1.778-1.778h-2.37a1.778 1.778 0 0 0-3.556 0H7.704a1.778 1.778 0 0 0-1.778-1.778m-4.741 7.081l4.119-4.119h5.985L1.185 16.622zm1.748 10.104L17.156 6.519h5.985L8.919 20.741zM29.007 6.519h1.215a.593.593 0 0 1 .593.593v3.585L20.77 20.741h-5.985zm1.807 10.044v3.585a.593.593 0 0 1-.593.593h-3.585z"/></svg>