<svg xmlns="http://www.w3.org/2000/svg" width="539.229" height="222.175" viewBox="0 0 539.229 222.175"><g transform="matrix(.999391 .034899 -.034899 .999391 -502.99991 -388.77687)"><g fill="#ffcaa0"><path d="M765.791 362.359l-.139.002h-.107v.022c-3.235-.07-8.002.215-8.002.215l-.072.004-.07.006c-9.202.805-18.846 3.5-27.096 9.416-2.214-2.138-5.105-3.897-8.756-4.492-4.041-.812-8.407-1.138-12.951-.74-7.952.696-16.671 3.499-23.811 9.908-5.464 4.905-9.161 11.76-10.893 19.582-.275.183-.567.343-.826.539-1.076-.155-2.123-.233-3.111-.223l-15.326.012-1.08.098c-1.153.103-1.538.317-2.137.521-3.635-.725-7.624-1.212-12.008-.828-7.182.628-13.388 3.186-18.5 6.719-2.571-1.845-5.268-2.722-7.371-3.09l-.281-.055-.752-.09-.166.006c-3.552-.44-7.271-.57-11.107-.234-5.097.446-10.084 1.737-14.947 3.527l-10.877 1.52c-.713-2.53-1.848-5.193-4.328-7.59-3.829-3.701-8.641-4.86-12.516-4.75h-.004-.029l-16.627.662-.691.059h-.004c-5.67.496-11.206 3.71-14.027 9.295-1.294 2.563-1.677 5.131-1.795 7.496-4.186 3.07-6.966 7.895-6.984 13.377v.094.045l.002.043.221 14.84.049.535.162 1.814.43.432c1.245 5.24 4.877 9.334 9.676 11.398.868 4.103 2.046 8.007 3.73 11.65-6.934 1.676-12.098 8.016-11.969 15.408l.434 24.695c.136 8.767 7.523 15.455 15.848 15.313h.006.002.002l5.746-.1c4.596-.071 8.361-2.313 10.826-4.865 1.202-1.245 2.184-2.822 2.979-4.555.922 1.608 2.031 3.021 3.244 4.074 2.223 1.93 4.286 2.68 4.893 2.91.84.33 1.222.433 2.107.738l2 .691.111.041.113.035s2.341.897 5.396.846c5.422-.089 9.104-2.565 11.42-4.937.664-.672 1.098-1.364 1.668-2.049l-.119.264 4.561 2.137 3.41 1.576c2.662 1.275 5.274 1.612 7.262 1.578a16.26 16.26 0 0 0 6.262-1.359c1.558-.679 3.672-1.744 5.926-4.506.059-.067.104-.145.162-.213 2.86 3.677 7.138 6.209 12.16 6.121l4.42-.076c5.108-.087 9.468-2.671 12.221-6.439 1.311 1.284 2.791 2.398 4.545 3.162 1.318.721 2.862 1.363 5.186 1.918.018.005.021.009.033.012l.078.018.098.027a19.23 19.23 0 0 0 1.059.262c.9.194 2.125.403 3.633.334 3.834-.175 8.148-1.823 11.232-5.404l.019.019h.002c.108-.105.194-.23.301-.336.017-.022.039-.035.057-.057l-.357.393.424.41v-.002c2.373 2.292 6.356 4.576 11.273 4.49h.002c3.399-.06 5.959-1.212 7.438-1.943 1.132-.56 2.203-1.182 3.268-1.854 2.15-1.355 4.604-3.129 7.129-5.338 1.367 4.437 3.391 8.78 6.305 12.832 15.035 20.908 43.271 23.462 62.395 10.387a16.35 16.35 0 0 0 3.186 4.586l.139 3.984c-.683 1.897-1.417 3.78-2.006 5.164l-.842 1.93-.256.568c-.065.144.103-.37-.246.58l-.01.023-.008.025c-.581 1.636-.848 3.392-.848 5.268 0 4.027 1.697 8.309 4.947 11.318 2.45 2.269 4.779 3.078 6.039 3.465l-.008.021.115.041.109.039.063.018.146.045.008.002 4.916 1.434.535.082-.484-.098c.74.189 2.1.422 3.645.467 2.71 1.761 5.809 2.566 8.668 2.566 4.116 0 7.336-1.037 10.133-1.908 3.198-.997 7.395-2.497 11.475-5.459.293-.21.315-.32.555-.529l13.381-.019c.693.986 1.545 2.006 2.695 2.926l-.283-.244.178.164 3.109 2.434v-.002c2.963 2.32 6.524 3.584 10.133 3.83l.17.012h.172c4.78 0 8.145-2.145 9.654-3.139 1.74-1.146 3.49-2.606 5.195-4.418 1.1-1.168 2.034-2.413 2.865-3.689 2.12 1.206 4.522 2.152 7.539 2.152h.084.012l19.795-.029c3.957 0 7.31-1.411 9.918-3.525 2.986-2.421 5.783-6.632 5.783-12.09v-.002l.002-5.307c0-2.084-.479-3.946-1.154-5.654 1.087-.634 2.055-1.391 2.971-2.248.014.012.025.029.039.041 3.068 2.577 6.138 4.301 8.736 5.449 1.29.57 2.534 1.034 3.75 1.393.038.011 2.501.829 5.326.832 7.035.023 11.892-4.161 15.529-6.855l.014-.01 3.049-2.24.379-.289c6.607 4.209 14.38 6.752 22.682 6.752 3.962 0 7.82-.789 11.576-1.887.971.588 1.801 1.175 3.137 1.703 1.681.664 3.219 1.143 4.572 1.488.13.033 2.486.744 5.207.744 4.207 0 7.989-1.581 10.871-3.912 2.584 1.655 5.575 2.719 8.836 2.719h.019l.428-.004 17.334-1.055c8.762-.435 15.916-7.683 15.918-16.586v-.004-.572l-.863-16.1c1.371-.587 2.674-1.342 3.855-2.295 2.719-2.193 5.234-5.461 6.147-9.719l.223-1.027v-.07l2.48-12.062v-.842c.117-.599.268-1.092.268-2.279 0-3.334-.992-7.448-3.953-10.957-2.826-3.35-6.354-4.887-8.975-5.586l.18.053-.178-.055-.35-.086-.217-.051c-3.672-.829-7.588-1.309-11.666-1.309-5.118 0-10.196.853-15.191 2.211l-7.019.365c-4.813.321-9.75.614-14.609.371l-14.756-1.283c-19.43-3.299-30.303-10.077-37.342-18.252-7.053-8.192-10.362-18.193-13.238-28.418s-5.15-20.685-11.611-29.037-17.343-13.499-34-12.904l-2.842.102-.049.088c-17.79.7-30.782 2.899-42.09 9.693-1.532-.77-3.068-1.426-4.566-1.902-5.051-1.606-11.051-2.343-17.695-1.762-7.653.67-15.659 3.08-22.736 7.754-.014-.251.055-.48.033-.732-.425-4.858-2.645-12.582-10.01-18.199-5.41-4.127-12.444-6.259-20.639-6.592l-.129-.004zm-.189 10.004h.074c6.697.276 11.548 1.95 14.955 4.549 4.597 3.507 5.869 8.323 6.113 11.119.239 2.731-.276 5.366-1.33 7.85l-1.141 2.686 1.779 2.314c.33.429.54.76.623.924l3.557 6.988 4.834-6.174c.941-1.201 1.911-2.287 2.916-3.219 6.22-5.764 14.359-8.606 22.297-9.301 5.384-.471 10.089.154 13.795 1.332 1.841.585 3.444 1.294 4.863 2.273l2.822 1.947 2.834-1.932c10.245-6.984 21.718-9.095 41.41-9.736.078.002.095 0 .234.008.093.005.38-.04.516-.037l.723-.023c14.28-.416 20.757 3.184 25.266 9.012 4.564 5.9 6.945 15.146 9.893 25.627s6.633 22.183 15.287 32.234 22.182 18.039 43.357 21.613l.199.033 15.32 1.332.025.002c1.865.143 5.987 1.241 6.203 1.393l3.084 2.164 2.93-2.367c1.611-1.301 1.79-1.523 2.973-1.508l.705-.037 7.932-.412.541-.152c4.533-1.283 8.963-1.998 13.221-1.998 3.293 0 6.471.387 9.463 1.063l.061.014h-.01l.041.008.014.004.082.022c1.276.34 2.76 1.013 3.908 2.373h0c1.31 1.553 1.596 2.9 1.596 4.508 0 .842.041.336-.141 1.127l-.125.545v.42l-2.482 12.074v.012.008c-.36 1.68-1.266 2.919-2.645 4.031-.896.723-2.048 1.234-3.541 1.463l-4.476.688 1.303 24.293v.305.002c0 3.568-2.829 6.425-6.406 6.602l-.029.002-17.152 1.043-.107.002c-2.064-.001-3.957-.99-5.326-2.709l-4.223-5.305-3.82 5.602c-.517.759-.983 1.333-1.643 1.883-1.41 1.175-2.685 1.723-4.693 1.723-1.184 0-1.779-.188-2.732-.432-.961-.245-2.1-.599-3.373-1.102-.757-.299-2.027-1.084-3.592-2.023l-1.982-1.189-2.189.74c-3.683 1.243-7.28 1.957-10.623 1.957a32.37 32.37 0 0 1-20.039-6.959l-3.709-2.924-3.131 3.535c-.287.324-.221.283-.225.287l-.025.025-.027.027c-.058.059-.225.212-.393.367a11.92 11.92 0 0 1-.441.361 53.15 53.15 0 0 1-1.057.807l-2.959 2.172-.016.012-.018.014c-3.881 2.871-6.792 4.93-9.584 4.92h-.01-.008c-.969 0-1.866-.238-2.51-.428-.749-.221-1.592-.528-2.535-.945-1.879-.831-4.115-2.085-6.346-3.959-.991-.832-2.044-1.912-3.062-3.152l-5.225-6.357-3.236 7.564c-1 2.339-3.472 4.121-6.002 4.168l-14.15.262 11.174 8.684.508.393c.905.895 1.705 2.19 1.705 3.957l-.002 5.307c0 2.081-1.024 3.466-2.082 4.324-.676.548-2.485 1.293-3.619 1.293h-.004l-19.887.029c-1.195 0-3.173-.92-3.715-1.379.67.567.651.552-.297-.479l-1.746-1.898-2.559.322-1.135.156-3.268-.158-1.48 2.834c-1.152 2.206-2.314 4.04-3.486 5.285-1.203 1.278-2.359 2.225-3.412 2.918-.683.449-2.713 1.403-4.023 1.459-1.709-.153-3.163-.68-4.443-1.682h-.002l-2.773-2.17-.145-.117c-.829-.663-.797-.715-1.383-1.859.211.413.143.23-.184-.455l-1.395-2.924-3.238.078c-1.746.042-1.767.039-.1.039l-20.262.031-1.49 1.689c-.534.605-.59.662-.658.711l-.016.01-.016.012c-2.734 1.988-5.76 3.13-8.588 4.012s-4.667 1.455-7.158 1.455c-1.769 0-2.643-.26-3.848-1.375l-1.684-1.559-2.279.26c-1.267.145-1.355.15-.52.15a5.27 5.27 0 0 1-1.506-.199l-.24-.061-.125-.019-4.111-1.197-.027-.008-.064-.021.016.006-.07-.019v-.002l.055.016-.08-.027c-.166-.052-1.739-.682-2.475-1.363-1.922-1.78-1.74-1.506-1.74-3.98 0-.854.14-1.502.262-1.861l.232-.516.916-2.102c.222-.521.516-1.36.768-1.977l.201.068.496-1.449 1.543-.055-.133-3.816c.327-.719.784-1.48 1.625-2.16l7.414-6.002-9.152-2.682c-2.884-.845-4.92-3.254-4.92-6.256l-.002-15.104-8.611 9c-14.255 14.901-40.699 15.086-54.023-3.443-4.011-5.578-6.005-11.665-6.383-17.783l-.83-13.443-8.143 10.729c-1.752 2.308-3.773 4.334-5.623 5.955-2.111 1.85-4.171 3.334-5.906 4.428a26.39 26.39 0 0 1-2.367 1.35c-.74.366-2.268.892-3.182.908-2.477.043-2.662-.25-3.969-1.529l-3.203-3.107c.315.305.49.524-.305-.594l-3.953-5.561-4.111 5.445c-.804 1.065-1.834 2.198-3.014 3.344l-.227.219-.197.246c-1.243 1.555-2.368 1.945-4.254 2.031-.224.01-.688-.037-1.07-.119a9.27 9.27 0 0 1-.516-.129l-.264-.072c-.059-.016-.126-.034-.27-.066-2.067-.49-1.846-.428-2.844-.992l-.293-.164-.289-.115c-1.514-.618-3.289-3.034-3.426-4.896l-.172-2.342-1.914-1.363c-1.125-.802-1.013-.703-.689-.365.223.233.264.254-.391-.635l-9.295-12.618.328 18.891c.047 2.687-2.482 5.633-5.461 5.684l-4.424.076c-2.731.048-4.9-1.914-5.402-4.656l-.52-2.838-2.719-.971c-.962-.343-1-.361-.389-.078 1.094.506.918.389-.441-.369l-4.094-2.285-2.543 3.938c-1.13 1.749-2.347 3.386-3.641 4.865l-.062.072-.061.076c-.505.624-2.632 1.865-2.197 1.676-.589.257-1.581.515-2.434.529h-.002c-.851.014-1.567-.116-2.559-.553l-3.838-1.746c-.457-.208-1.305-.684-1.918-1.369-.76-.85-.931-1.303-1.141-2.533l-2.572-15.113-6.832 13.723c-1.242 2.494-2.67 4.834-4.875 7.064l-.012.014-.014.014c-.067.068-.627.383-1.047.635l1.357-2.533.762-10.273-8.049 4.447-1.365.682-.746 1.484c-.011.022-.077.142-.184.381l-1.729 3.857 4.256 2.838-1.895-.656-1.729-.598-.029-.014-.029-.01c.045.017-1.317-.606-1.912-1.123-1.425-1.237-1.834-1.711-1.891-3.951.023-.167.045-.165.053-.365l.174-4.344-4.279-.775c-.659-.119-.915-.184-.707-.115l-3.383-1.117-2.16 2.832c-.921 1.208-1.534 1.587-2.482 1.826l-3.201.809-.514 3.262c-.183 1.163-.727 2.138-1.582 3.023-1.116 1.155-2.216 1.788-3.787 1.813h-.004l-5.768.1c-3.246.054-5.625-1.913-5.68-5.469v-.004l-.434-24.711c-.054-3.083 2.398-5.63 5.492-5.684l15.678-.273-6.666-8.014c-.869-1.045-1.162-1.274-.895-.906-3.089-4.237-4.881-9.665-6.117-16.553l-.6-3.34-3.326-.676c-2.99-.609-5.38-3.085-5.631-5.953l-.018-.205-.217-14.43v-.018c.009-2.747 1.593-5.047 4.012-6.158l3.002-1.381-.092-3.301-.041-1.4c.026-1.868.197-2.915.824-4.156 1.382-2.737 2.886-3.572 5.973-3.842l.451-.039 16.318-.648h.004c1.866-.052 3.608.332 5.275 1.943 1.518 1.467 2.042 3.307 2.174 4.805l.014.15.004.092v.006c.022.547.024 1.144.043 1.861l.09 3.42 3.221 1.154.867.324 2.836 1.486 2.537-1.955a6.21 6.21 0 0 1 3.029-1.27l4.867-.66-.01-.088 4.775-.668.527-.199c4.406-1.675 8.756-2.771 13-3.143 3.281-.287 6.482-.181 9.52.23l.111.016.037.008.043.006c1.299.227 2.838.768 4.102 2.025-.418-.416-.418-.358.479.852l3.256 4.395 4.084-3.635c4.264-3.794 9.737-6.559 16.547-7.154 3.57-.312 6.957.102 10.266.836l1.283.285 1.258-.385 1.352-.432h.004l.643-.057 14.955-.012h.025a9.93 9.93 0 0 1 2.957.408l2.969.906 2.129-2.26c.687-.729 1.372-1.228 2.125-1.557l2.506-1.092.434-2.697c1.105-6.872 4.127-12.434 8.285-16.166 5.197-4.665 11.738-6.839 18.002-7.387 3.573-.313 7.034-.057 10.232.596l.107.022.109.018c2.703.429 3.777 1.587 4.758 3.369-.221-.402-.215-.35.195.602l2.871 6.666 5.205-5.057c1.185-1.151 2.044-2.052 2.658-2.51 6.449-4.805 14.507-7.164 22.6-7.881.117-.006 5.625-.28 7.396-.215zm120.883 1.67a3.76 3.76 0 0 0 .383.004c-.006-.001-.347.014-.43 0 .01 0 .038-.004.047-.004zM610.828 497.234l-13.57.475v4.828l.438-2.041c.014-.032.062-.141.154-.311l.059.033-.01-.018 7.613 4.145-.006.006 1.125.613.004-.008h.002zm-34.08 2.883l1.787 6.197c-.054.12-.057.12-.008.022l-2.086 2.084-7.346-4.709.527-1.811zm-22.145.977c-.017.07-.043.47-.082.727l-.01-.012c.019-.472.127-.861.092-.715zm93.975 13.662c.011.005.02.013.031.018l.016.006.027.012zm214.867 36.379c.106.004.117.012.406.012h-.164z" paint-order="stroke fill markers"/><path d="M766.068 370.578l-.139.002h-.107v.022c-3.235-.07-8.002.215-8.002.215l-.072.004-.07.006c-9.202.805-18.846 3.5-27.096 9.416-2.214-2.138-5.105-3.897-8.756-4.492-4.041-.812-8.407-1.138-12.951-.74-7.952.696-16.671 3.499-23.811 9.908-5.464 4.905-9.161 11.76-10.893 19.582-.275.183-.567.343-.826.539-1.076-.155-2.123-.233-3.111-.223l-15.326.012-1.08.098c-1.153.103-1.538.317-2.137.521-3.635-.725-7.624-1.212-12.008-.828-7.182.628-13.388 3.186-18.5 6.719-2.571-1.845-5.268-2.722-7.371-3.09l-.281-.055-.752-.09-.166.006c-3.552-.44-7.271-.57-11.107-.234-5.097.446-10.084 1.737-14.947 3.527l-10.877 1.52c-.713-2.53-1.848-5.193-4.328-7.59-3.829-3.701-8.641-4.86-12.516-4.75h-.004-.029l-16.627.662-.691.059h-.004c-5.67.496-11.206 3.71-14.027 9.295-1.294 2.563-1.677 5.131-1.795 7.496-4.186 3.07-6.966 7.895-6.984 13.377v.094.045l.002.043.221 14.84.049.535.162 1.814.43.432c1.245 5.24 4.877 9.334 9.676 11.398.868 4.103 2.046 8.007 3.73 11.65-6.934 1.676-12.098 8.016-11.969 15.408l.434 24.695c.136 8.767 7.523 15.455 15.848 15.313h.006.002.002l5.746-.1c4.596-.071 8.361-2.313 10.826-4.865 1.202-1.245 2.184-2.822 2.979-4.555.922 1.608 2.031 3.021 3.244 4.074 2.223 1.93 4.286 2.68 4.893 2.91.84.33 1.222.433 2.107.738l2 .691.111.041.113.035s2.341.897 5.396.846c5.422-.089 9.104-2.565 11.42-4.937.664-.672 1.098-1.364 1.668-2.049l-.119.264 4.561 2.137 3.41 1.576c2.662 1.275 5.274 1.612 7.262 1.578a16.26 16.26 0 0 0 6.262-1.359c1.558-.679 3.672-1.744 5.926-4.506.059-.067.104-.145.162-.213 2.86 3.677 7.138 6.209 12.16 6.121l4.42-.076c5.108-.087 9.468-2.671 12.221-6.439 1.311 1.284 2.791 2.398 4.545 3.162 1.318.721 2.862 1.363 5.186 1.918.018.005.021.009.033.012l.078.018.098.027a19.23 19.23 0 0 0 1.059.262c.9.194 2.125.403 3.633.334 3.834-.175 8.148-1.823 11.232-5.404l.019.019h.002c.108-.105.194-.23.301-.336.017-.021.039-.035.057-.057l-.357.393.424.41v-.002c2.373 2.292 6.356 4.576 11.273 4.49h.002c3.399-.06 5.959-1.212 7.438-1.943 1.132-.56 2.203-1.182 3.268-1.854 2.15-1.355 4.604-3.129 7.129-5.338 1.367 4.437 3.391 8.78 6.305 12.832 15.035 20.908 43.271 23.462 62.395 10.387a16.35 16.35 0 0 0 3.186 4.586l.139 3.984c-.683 1.897-1.417 3.78-2.006 5.164l-.842 1.93-.256.568c-.065.144.103-.37-.246.58l-.01.023-.008.025c-.581 1.636-.848 3.392-.848 5.268 0 4.027 1.697 8.309 4.947 11.318 2.45 2.269 4.779 3.078 6.039 3.465l-.008.021.115.041.109.039.063.018.146.045.008.002 4.916 1.434.535.082-.484-.098c.74.189 2.1.422 3.645.467 2.71 1.761 5.809 2.566 8.668 2.566 4.116 0 7.336-1.037 10.133-1.908 3.198-.997 7.395-2.497 11.475-5.459.293-.21.315-.32.555-.529l13.381-.019c.693.986 1.545 2.006 2.695 2.926l-.283-.244.178.164 3.109 2.434v-.002c2.963 2.32 6.524 3.584 10.133 3.83l.17.012h.172c4.78 0 8.145-2.145 9.654-3.139 1.74-1.146 3.49-2.606 5.195-4.418 1.1-1.168 2.034-2.413 2.865-3.689 2.12 1.206 4.522 2.152 7.539 2.152h.084.012l19.795-.029c3.957 0 7.31-1.411 9.918-3.525 2.986-2.421 5.783-6.632 5.783-12.09v-.002l.002-5.307c0-2.084-.479-3.946-1.154-5.654 1.087-.634 2.055-1.391 2.971-2.248.014.012.025.029.039.041 3.068 2.577 6.138 4.301 8.736 5.449 1.29.57 2.534 1.034 3.75 1.393.038.011 2.501.829 5.326.832 7.035.023 11.892-4.161 15.529-6.855l.014-.01 3.049-2.24.379-.289c6.607 4.209 14.38 6.752 22.682 6.752 3.962 0 7.82-.789 11.576-1.887.971.588 1.801 1.175 3.137 1.703 1.681.664 3.219 1.143 4.572 1.488.13.033 2.486.744 5.207.744 4.207 0 7.989-1.581 10.871-3.912 2.584 1.655 5.575 2.719 8.836 2.719h.019l.428-.004 17.334-1.055c8.762-.435 15.916-7.683 15.918-16.586v-.004-.572l-.863-16.1c1.371-.587 2.674-1.342 3.855-2.295 2.719-2.193 5.234-5.461 6.147-9.719l.223-1.027v-.07l2.48-12.062v-.842c.117-.599.268-1.092.268-2.279 0-3.334-.992-7.448-3.953-10.957-2.826-3.35-6.354-4.887-8.975-5.586l.18.053-.178-.055-.35-.086-.217-.051c-3.672-.829-7.588-1.309-11.666-1.309-5.118 0-10.196.853-15.192 2.211l-7.02.365-1.778.092.01.109c-1.885.279-3.372.905-4.734 1.68-3.178-1.303-6.176-1.361-8.107-1.51l-14.756-1.283c-19.43-3.299-30.303-10.077-37.342-18.252-7.053-8.192-10.362-18.193-13.238-28.418s-5.15-20.685-11.611-29.037-17.343-13.499-34-12.904l-2.842.102-.049.088c-17.79.7-30.782 2.899-42.09 9.693-1.532-.77-3.068-1.426-4.566-1.902-5.051-1.606-11.051-2.343-17.695-1.762-7.653.67-15.659 3.08-22.736 7.754-.014-.251.055-.48.033-.732-.425-4.858-2.645-12.582-10.01-18.199-5.41-4.127-12.444-6.259-20.639-6.592l-.129-.004zm-.189 10.004h.074c6.697.276 11.548 1.95 14.955 4.549 4.597 3.507 5.869 8.323 6.113 11.119.239 2.731-.276 5.366-1.33 7.85l-1.141 2.686 1.779 2.314c.33.429.54.76.623.924l3.557 6.988 4.834-6.174c.941-1.201 1.911-2.287 2.916-3.219 6.22-5.764 14.359-8.606 22.297-9.301 5.384-.471 10.089.154 13.795 1.332 1.841.585 3.444 1.294 4.863 2.273l2.822 1.947 2.834-1.932c10.245-6.984 21.718-9.095 41.41-9.736.078.002.095 0 .234.008.093.005.38-.04.516-.037l.723-.023c14.28-.416 20.757 3.184 25.266 9.012 4.564 5.9 6.945 15.146 9.893 25.627s6.633 22.183 15.287 32.234 22.182 18.039 43.357 21.613l.199.033 15.32 1.332.025.002c1.865.143 5.987 1.241 6.203 1.393l3.084 2.164 2.93-2.367c1.611-1.301 1.79-1.523 2.973-1.508l.705-.037 7.932-.412.541-.152c4.533-1.283 8.964-1.998 13.221-1.998 3.293 0 6.471.387 9.463 1.063l.061.014h-.01l.041.008.014.004.082.022c1.276.34 2.76 1.013 3.908 2.373h0c1.31 1.553 1.596 2.9 1.596 4.508 0 .842.041.336-.141 1.127l-.125.545v.42l-2.482 12.074v.012.008c-.36 1.68-1.266 2.919-2.645 4.031-.896.723-2.048 1.234-3.541 1.463l-4.476.688 1.303 24.293v.305.002c0 3.568-2.829 6.425-6.406 6.602l-.029.002-17.153 1.043-.107.002c-2.064-.001-3.957-.99-5.326-2.709l-4.223-5.305-3.82 5.602c-.517.759-.983 1.333-1.643 1.883-1.41 1.175-2.685 1.723-4.693 1.723-1.184 0-1.779-.188-2.732-.432-.961-.245-2.1-.599-3.373-1.102-.757-.299-2.027-1.084-3.592-2.023l-1.982-1.189-2.189.74c-3.683 1.243-7.28 1.957-10.623 1.957a32.37 32.37 0 0 1-20.039-6.959l-3.709-2.924-3.131 3.535c-.287.324-.221.283-.225.287l-.025.025-.027.027c-.058.059-.225.212-.393.367a11.92 11.92 0 0 1-.441.361 53.15 53.15 0 0 1-1.057.807l-2.959 2.172-.016.012-.018.014c-3.881 2.871-6.792 4.93-9.584 4.92h-.01-.008c-.969 0-1.866-.238-2.51-.428-.749-.221-1.592-.528-2.535-.945-1.879-.831-4.115-2.085-6.346-3.959-.991-.832-2.044-1.912-3.062-3.152l-5.225-6.357-3.236 7.564c-1 2.339-3.472 4.121-6.002 4.168l-14.15.262 11.174 8.684.508.393c.905.895 1.705 2.19 1.705 3.957l-.002 5.307c0 2.081-1.024 3.466-2.082 4.324-.676.548-2.485 1.293-3.619 1.293h-.004l-19.887.029c-1.195 0-3.173-.92-3.715-1.379.67.567.651.552-.297-.479l-1.746-1.898-2.559.322-1.135.156-3.268-.158-1.48 2.834c-1.152 2.206-2.314 4.04-3.486 5.285-1.203 1.278-2.359 2.225-3.412 2.918-.683.449-2.713 1.403-4.023 1.459-1.709-.153-3.163-.68-4.443-1.682h-.002l-2.773-2.17-.145-.117c-.829-.663-.797-.715-1.383-1.859.211.413.143.23-.184-.455l-1.395-2.924-3.238.078c-1.746.042-1.767.039-.1.039l-20.262.031-1.49 1.689c-.534.605-.59.662-.658.711l-.016.01-.016.012c-2.734 1.988-5.76 3.13-8.588 4.012s-4.667 1.455-7.158 1.455c-1.769 0-2.643-.26-3.848-1.375l-1.684-1.559-2.279.26c-1.267.145-1.355.15-.52.15a5.27 5.27 0 0 1-1.506-.199l-.24-.061-.125-.019-4.111-1.197-.027-.008-.064-.021.016.006-.07-.019v-.002l.055.016-.08-.027c-.166-.052-1.739-.682-2.475-1.363-1.922-1.78-1.74-1.506-1.74-3.98 0-.854.14-1.502.262-1.861l.232-.516.916-2.102c.222-.521.516-1.36.768-1.977l.201.068.496-1.449 1.543-.055-.133-3.816c.327-.719.784-1.48 1.625-2.16l7.414-6.002-9.152-2.682c-2.884-.845-4.92-3.254-4.92-6.256l-.002-15.104-8.611 9c-14.255 14.901-40.699 15.086-54.023-3.443-4.011-5.578-6.005-11.665-6.383-17.783l-.83-13.443-8.143 10.729c-1.752 2.308-3.773 4.334-5.623 5.955-2.111 1.85-4.171 3.334-5.906 4.428a26.39 26.39 0 0 1-2.367 1.35c-.74.366-2.268.892-3.182.908-2.477.043-2.662-.25-3.969-1.529l-3.203-3.107c.315.305.49.524-.305-.594l-3.953-5.561-4.111 5.445c-.804 1.065-1.834 2.198-3.014 3.344l-.227.219-.197.246c-1.243 1.555-2.368 1.945-4.254 2.031-.224.01-.688-.037-1.07-.119a9.27 9.27 0 0 1-.516-.129l-.264-.072c-.059-.016-.126-.034-.27-.066-2.067-.49-1.846-.428-2.844-.992l-.293-.164-.289-.115c-1.514-.618-3.289-3.034-3.426-4.896l-.172-2.342-1.914-1.363c-1.125-.802-1.013-.703-.689-.365.223.233.264.254-.391-.635l-9.295-12.618.328 18.891c.047 2.687-2.482 5.633-5.461 5.684l-4.424.076c-2.731.048-4.9-1.914-5.402-4.656l-.52-2.838-2.719-.971c-.962-.343-1-.361-.389-.078 1.094.506.918.389-.441-.369l-4.094-2.285-2.543 3.938c-1.13 1.749-2.347 3.386-3.641 4.865l-.062.072-.061.076c-.505.624-2.632 1.865-2.197 1.676-.589.257-1.581.515-2.434.529h-.002c-.851.014-1.567-.116-2.559-.553l-3.838-1.746c-.457-.208-1.305-.684-1.918-1.369-.76-.85-.931-1.303-1.141-2.533l-2.572-15.113-6.832 13.723c-1.242 2.494-2.67 4.834-4.875 7.064l-.012.014-.014.014c-.067.068-.627.383-1.047.635l1.357-2.533.762-10.273-8.049 4.447-1.365.682-.746 1.484c-.011.022-.077.142-.184.381l-1.729 3.857 4.256 2.838-1.895-.656-1.729-.598-.029-.014-.029-.01c.045.017-1.317-.606-1.912-1.123-1.425-1.237-1.834-1.711-1.891-3.951.023-.167.045-.165.053-.365l.174-4.344-4.279-.775c-.659-.119-.915-.184-.707-.115l-3.383-1.117-2.16 2.832c-.921 1.208-1.534 1.587-2.482 1.826l-3.201.809-.514 3.262c-.183 1.163-.727 2.138-1.582 3.023-1.116 1.155-2.216 1.788-3.787 1.813h-.004l-5.768.1c-3.246.054-5.625-1.913-5.68-5.469v-.004l-.434-24.711c-.054-3.083 2.398-5.63 5.492-5.684l15.678-.273-6.666-8.014c-.869-1.045-1.162-1.274-.895-.906-3.089-4.237-4.881-9.665-6.117-16.553l-.6-3.34-3.326-.676c-2.99-.609-5.38-3.085-5.631-5.953l-.018-.205-.217-14.43v-.018c.009-2.747 1.593-5.047 4.012-6.158l3.002-1.381-.092-3.301-.041-1.4c.026-1.868.197-2.915.824-4.156 1.382-2.737 2.886-3.572 5.973-3.842l.451-.039 16.318-.648h.004c1.866-.052 3.608.332 5.275 1.943 1.518 1.467 2.042 3.307 2.174 4.805l.014.15.004.092v.006c.022.547.024 1.144.043 1.861l.09 3.42 3.221 1.154.867.324 2.836 1.486 2.537-1.955a6.21 6.21 0 0 1 3.029-1.27l4.867-.66-.01-.088 4.775-.668.527-.199c4.406-1.675 8.756-2.771 13-3.143 3.281-.287 6.482-.181 9.52.23l.111.016.037.008.043.006c1.299.227 2.838.768 4.102 2.025-.418-.416-.418-.358.479.852l3.256 4.395 4.084-3.635c4.264-3.794 9.737-6.559 16.547-7.154 3.57-.312 6.957.102 10.266.836l1.283.285 1.258-.385 1.352-.432h.004l.643-.057 14.955-.012h.025a9.93 9.93 0 0 1 2.957.408l2.969.906 2.129-2.26c.687-.729 1.372-1.228 2.125-1.557l2.506-1.092.434-2.697c1.105-6.872 4.127-12.434 8.285-16.166 5.197-4.665 11.738-6.839 18.002-7.387 3.573-.313 7.034-.057 10.232.596l.107.022.109.018c2.703.429 3.777 1.587 4.758 3.369-.221-.402-.215-.35.195.602l2.871 6.666 5.205-5.057c1.185-1.151 2.044-2.052 2.658-2.51 6.449-4.805 14.507-7.164 22.6-7.881.117-.006 5.625-.28 7.396-.215zm120.883 1.67a3.76 3.76 0 0 0 .383.004c-.006-.001-.347.014-.43 0 .01 0 .038-.004.047-.004zM611.106 505.453l-13.57.475v4.828l.438-2.041c.014-.032.062-.141.154-.311l.059.033-.01-.018 7.613 4.145-.006.006 1.125.613.006-.008zm-34.08 2.883l1.787 6.197c-.054.12-.057.12-.008.021l-2.086 2.084-7.346-4.709.527-1.811zm-22.145.977c-.017.07-.043.47-.082.727l-.01-.012c.019-.472.127-.861.092-.715zm93.975 13.662c.011.005.02.013.031.018l.016.006.027.012zm214.867 36.379c.106.004.117.012.406.012h-.164z" paint-order="stroke fill markers"/></g><path d="M757.835 367.588c-8.78.768-17.79 3.328-25.218 8.862-1.14.849-2.12 1.928-3.153 2.932-.152-.354-.211-.68-.408-1.037-1.531-2.78-4.114-5.222-8.355-5.896-3.64-.743-7.582-1.035-11.667-.677-7.108.622-14.738 3.11-20.906 8.647-5.098 4.576-8.617 11.222-9.883 19.093-1.462.637-2.703 1.582-3.767 2.711-1.534-.468-3.068-.64-4.468-.626l-15.153.011-.859.077c-.913.08-1.605.396-2.372.63-3.626-.805-7.556-1.305-11.784-.935-7.935.694-14.463 3.976-19.434 8.398-.349-.471-.518-.97-.97-1.42-2.186-2.174-4.779-3.057-6.766-3.405l-.189-.036-.19-.023h-.002a48 48 0 0 0-10.627-.258c-4.798.42-9.593 1.645-14.341 3.45l-9.063 1.266.008.068c-2.061.279-3.889 1.092-5.411 2.264-.474-.248-.988-.417-1.498-.6l-.046-1.929-.008-.215-.023-.251v-.01c-.205-2.346-1.081-5.459-3.681-7.972-2.748-2.657-6.027-3.429-8.898-3.348h-.002l-16.487.656-.573.049c-4.378.383-7.9 2.407-10.001 6.568-1.058 2.095-1.333 4.12-1.362 6.378l.001.043.044 1.529c-4.118 1.893-6.908 5.974-6.924 10.686v.01l.001.09.218 14.644.032.358.002.002c.457 5.226 4.561 9.388 9.615 10.417 1.303 7.257 3.264 13.491 7 18.615.322.442.746.745 1.09 1.158l-5.254.092c-5.825.1-10.505 4.956-10.404 10.77l.433 24.705c.095 6.162 4.979 10.489 10.764 10.39l5.764-.1c3.084-.048 5.516-1.485 7.306-3.339 1.447-1.498 2.563-3.42 2.925-5.719 2.102-.531 3.797-1.759 5.234-3.642.439.145.916.203 1.384.288-.008.2-.081.308-.078.519.059 3.674 1.501 5.921 3.633 7.772 1.416 1.23 3.141 1.917 3.414 2.021.326.129 3.503 1.211 4.002 1.391 0 0 2.129.655 3.844.626 3.5-.057 6.671-2.141 7.937-3.441 2.69-2.72 4.422-5.597 5.794-8.352.312 1.833.934 3.454 2.343 5.029 1.286 1.438 2.774 2.224 3.575 2.588l-.009.02.082.038 3.46 1.599c1.899.909 3.562 1.114 5.018 1.089 1.632-.027 3.177-.435 4.349-.945.568-.247 2.697-1.397 4.087-3.115 1.475-1.686 2.831-3.517 4.076-5.444.273.152.498.412.779.541.27.125.535.152.808.249.915 5.001 5.178 8.847 10.408 8.755l4.422-.076c5.861-.1 10.471-5.248 10.375-10.771l-.056-3.221c.283.384.437.744.808 1.131.46.48.929.643 1.398.977.288 3.908 2.986 7.713 6.523 9.157l.01.004c1.184.669 1.882.967 4.167 1.51.109-.003 1.753.591 3.485.512 2.934-.134 5.762-1.188 7.933-3.904 1.313-1.275 2.514-2.583 3.522-3.918.29.408.437.839.897 1.286l-.004.004 2.786 2.713.014.019.231.223c1.957 1.89 3.945 3.154 7.714 3.088 2.157-.038 4.201-.878 5.311-1.426a31.27 31.27 0 0 0 2.817-1.601c1.948-1.228 4.211-2.86 6.536-4.897 2.041-1.789 4.295-4.039 6.309-6.693.433 7.008 2.748 14.045 7.314 20.394 15.159 21.08 45.32 21.101 61.696 3.982v2.646c0 5.3 3.653 9.629 8.512 11.053-1.959 1.586-2.981 3.512-3.506 5.043l-.012-.004v.002h-.002c-1.639 4.741-3.626 8.955-3.686 9.118-.353.993-.559 2.216-.559 3.594 0 3.25.757 5.255 3.343 7.65 1.703 1.577 3.842 2.313 4.481 2.501l4.592 1.339.208.032c.635.162 1.534.356 2.745.356.382 0 .712-.14 1.086-.183 2.142 1.982 4.571 2.706 7.243 2.706 3.304 0 5.832-.805 8.646-1.682 3.016-.94 6.632-2.262 10.042-4.742.653-.467 1.059-.971 1.498-1.469l18.006-.027c.074 0 .141-.039.216-.041.088.185.153.4.245.58.652 1.274 1.261 2.327 2.709 3.486l.02.019 2.941 2.301c2.149 1.682 4.684 2.592 7.392 2.777 3.041 0 5.8-1.586 6.906-2.315 1.397-.919 2.85-2.123 4.304-3.668 1.677-1.781 3.029-4.006 4.277-6.397l.681.033h.285c.411 0 .723-.17 1.108-.218.271.294.426.64.747.912 1.511 1.279 4.195 2.562 6.945 2.562h.008l19.882-.03c2.545 0 5.127-1.078 6.77-2.41 2.022-1.64 3.933-4.437 3.933-8.207v-5.308c0-3.495-1.662-6.241-3.574-7.947-.146-.131-.405-.222-.569-.349 4.629-.086 8.744-3.079 10.507-7.199 1.183 1.439 2.433 2.734 3.709 3.806a31.6 31.6 0 0 0 7.542 4.705c1.117.494 2.16.879 3.142 1.168.34.1 2.023.631 3.923.631 4.925.019 8.816-3.119 12.577-5.902l3.011-2.212 1.157-.883c.145-.114.374-.295.636-.523.002-.002.377-.327.693-.652.004-.004.265-.319.432-.508 6.385 5.034 14.483 8.033 23.136 8.033 4.045 0 8.162-.851 12.221-2.221 1.439.864 2.871 1.81 4.328 2.386 1.477.583 2.817 1 3.973 1.296.542.138 2.016.588 3.968.588 3.155 0 5.738-1.085 7.894-2.883 1.121-.934 1.913-1.936 2.574-2.906 2.229 2.799 5.553 4.594 9.24 4.594l.277-.002 17.257-1.05c6.167-.305 11.161-5.358 11.161-11.596v-.44l-1.068-19.905c2.248-.345 4.271-1.183 5.922-2.515 2.049-1.652 3.759-3.905 4.396-6.874l.113-.518v-.041l2.481-12.069.001-.364c.091-.397.268-.947.268-2.243 0-2.471-.64-5.201-2.775-7.732-1.987-2.355-4.493-3.459-6.442-3.979l-.04-.012-.181-.045-.146-.034-.01-.002c-3.332-.752-6.878-1.187-10.563-1.187-4.815 0-9.699.806-14.583 2.188l-7.37.382c-3.167.178-13.049.533-15.257.363l-15.096-1.312c-81.351-13.731-32.658-90.804-95.283-88.57-.088.16-.497.043-.772.052h-.002l-.017.005c-20.125.643-32.905 2.873-44.26 10.614-1.941-1.339-4.034-2.238-6.188-2.923-4.379-1.392-9.731-2.073-15.745-1.547-8.819.772-18.056 3.938-25.26 10.615-1.247 1.156-2.388 2.442-3.453 3.803-.298-.585-.688-1.148-1.115-1.702 1.328-3.127 2.027-6.599 1.708-10.238-.335-3.827-2.08-10.097-8.061-14.659-4.411-3.364-10.356-5.269-17.809-5.571-2.484-.101-8.019.223-8.019.223zm8.019-.223l-.137-.005-.139.001zm13.957 195.677l-.172-.057.095.034zm-177.552-60.504h.002l-.018.034a.48.48 0 0 0 .016-.034zm-28.176 1.543l-.105.195-.006-.004c.027-.059.058-.119.088-.179.004-.002.023-.012.023-.012z" fill="#fdfdfd" paint-order="stroke fill markers"/><path d="M794.718 556.146c0 .675.235 1.144.968 1.144 1.731 0 9.093-1.76 12.877-4.547.293-.205.44-.44.44-.704 0-.323-.029-.44-2.259-4.283-.176-.323-.352-.44-.587-.44-.117 0-.264.059-.411.088-3.432.851-3.755.939-4.019.939-.293 0-.381-.147-.381-.645V537.49c0-.352-.381-.557-.763-.557h-.059l-5.632.264c-.381 0-.528.381-.528.763zm-7.861-1.467c.205.059.352.088.499.088 1.379 0 5.163-8.096 5.163-9.768 0-.528-.323-.792-.763-.909l-4.957-1.32c-.088-.029-.205-.029-.293-.029-.352 0-.645.176-.821.704-.821 2.376-2.376 6.512-3.491 8.8-.117.264-.205.469-.205.645 0 .235.147.411.645.557zm47.021-5.309c.323 0 .704-.264.704-.616v-5.309c0-.381-.381-.675-.704-.675l-19.917-.029c-.323 0-.704.293-.704.645v5.339c0 .381.411.675.733.675zm29.979-3.227c.323 0 .587-.235.587-.557l.293-4.693c0-.323-.381-.645-.733-.645l-6.277-.293c.088-.909.117-1.819.117-2.669 0-3.109-.176-3.52-1.32-3.52l-5.016-.059c-.587 0-.851.411-.88.968-.059 1.525-.147 3.197-.323 4.928l-8.125-.381c-.323 0-.44.264-.469.587l-.264 4.693v.059c0 .323.235.587.557.587l7.245.323c-.968 3.608-2.64 6.923-5.573 8.976-.293.205-.587.499-.587.763 0 .147.059.264.205.381l2.963 2.317c.44.352.792.587 1.144.587.792 0 6.6-3.344 9.269-12.672l7.128.323zm28.688 3.227c.323 0 .704-.264.704-.616v-5.309c0-.381-.381-.675-.704-.675l-19.917-.029c-.323 0-.704.293-.704.645v5.339c0 .381.411.675.733.675zm-5.069-160.505c-1.46.207-2.693 1.19-3.222 2.567l-7.06 18.296 6.284 3.924a7.7 7.7 0 0 0 7.696.269l6.542-3.476-5.766-18.744c-.585-1.921-2.487-3.126-4.474-2.836zm-13.115 28.173l-11.296 29.262 22.631 14.14 23.553-12.528-9.227-29.979-9.16 4.872c-2.429 1.292-5.363 1.189-7.705-.269zm-19.156 33.441l22.622 14.14a15.42 15.42 0 0 0 15.392.537l23.553-12.528c1.619-.858 2.656-2.522 2.721-4.358s-.855-3.559-2.41-4.537l-22.613-14.131a15.42 15.42 0 0 0-15.392-.537l-23.562 12.527c-1.619.858-2.656 2.522-2.721 4.358s.855 3.559 2.41 4.537zM741.03 463.982c-24.021.843-37.404 28.121-23.371 47.635s44.151 15.509 52.596-6.995c.939-2.501-1.604-4.893-4.041-3.803a19.56 19.56 0 0 1-21.772-31.715l.223-.249c1.591-1.952.166-4.982-2.453-4.891l-.8.028-.205-.012zm59.068 61.806c.939 0 1.707-.768 1.707-1.707v-69.717c0-1.024-.768-1.792-1.707-1.792h-17.152c-.939 0-1.707.768-1.707 1.792v69.717c0 .939.768 1.707 1.707 1.707zm64-.085c.939 0 1.792-.683 1.877-1.707l2.304-44.373c0-1.024-.683-1.877-1.707-1.877l-16.981-.939c-.939 0-1.792.683-1.877 1.707l-1.536 29.355c-2.133 1.024-4.181 1.621-5.888 1.621-3.584 0-6.144-2.56-6.485-9.899l-1.195-20.48c-.085-1.024-.768-1.877-2.475-1.877-1.451 0-14.677.939-14.763 1.109-1.024.085-2.219.768-2.219 4.267l.512 21.589c.768 15.872 9.984 22.528 21.845 22.528 3.755 0 7.765-.683 11.861-1.963zm69.632-22.955c0-16.299-13.141-26.88-30.464-26.88-3.072 0-6.229.341-9.557 1.024l-9.557-.512h-.171c-.853 0-1.621.768-1.707 1.707l-2.304 44.373c0 1.024.683 1.792 1.707 1.877l17.067.853h.171c.853 0 1.621-.768 1.621-1.621l1.621-30.976c6.229.341 10.581 4.096 10.581 13.056v2.901c0 15.189 13.653 19.712 15.189 19.712.768 0 1.621-.256 2.475-.939l8.448-6.229c.597-.427.853-.939.853-1.451 0-.939-.853-1.792-1.365-2.219-3.499-3.243-4.608-7.083-4.608-11.861zm68.352 12.373c.171-.341.256-.597.256-.768 0-.853-.939-1.365-1.792-1.792-2.731-1.451-3.669-5.12-3.669-10.24 0-5.632 1.195-13.056 2.389-20.821v-.427c0-1.024-.597-2.133-2.816-2.304l-14.763-1.28h-.427c-1.024 0-1.792.256-2.304.853-3.328-1.451-7.509-2.389-11.776-2.389-16.896 0-24.149 14.763-24.149 25.003 0 13.739 12.288 24.661 26.539 24.661 4.352 0 8.96-1.024 13.397-3.328 4.267 4.011 10.24 5.376 11.093 5.376 1.109 0 1.963-.768 2.731-2.219zm-25.003-6.229c-1.963.853-3.84 1.195-5.461 1.195-5.547 0-8.875-4.096-8.875-8.875 0-4.352 2.987-9.557 8.363-9.557 2.475 0 4.779 1.195 5.803 2.901a105.71 105.71 0 0 0-.256 7.083 62.65 62.65 0 0 0 .427 7.253zm53.675 16.64c.939 0 1.707-.768 1.707-1.707v-.171l-1.621-30.208c1.365-.341 2.56-.512 3.755-.512 1.451 0 2.901.256 4.267.683.341.085.683.171.939.171 1.024 0 1.877-.597 2.133-1.792l2.475-12.032c.085-.427.171-.768.171-1.109 0-1.024-.512-1.707-1.792-2.048-2.645-.597-5.461-.939-8.363-.939-4.267 0-8.704.683-13.312 2.133l-9.899.512c-.939 0-1.707.853-1.707 1.877l2.389 44.373c0 1.024.853 1.707 1.877 1.707zM570.29 455.28c.063-.262.125-.525.111-.695-.082-.935-1.132-1.186-2.104-1.529-3.882-1.288-5.415-7.064-6.092-14.8l5.633-.236.17-.015c.935-.082 1.548-.906 1.559-1.764l-.214-14.201c-.089-1.02-.929-1.803-1.864-1.721l-5.895.173-.272-10.941c-.126-1.445-.881-2.236-2.333-2.194l-16.134.641-.34.03c-2.21.193-2.239 1.823-2.235 2.851l.312 10.423-5.47.136c-1.02.089-1.718.921-1.721 1.864l.214 14.201c.082.935.921 1.718 1.864 1.721l6.405-.218c2.307 21.47 7.722 28.534 21.646 30.057.262.063.517.04.773.018 1.275-.112 1.966-1.029 2.505-2.703zm32.919 9.112c.935-.082 1.633-.914 1.551-1.849l-.015-.17-4.248-29.952c1.33-.459 2.506-.733 3.696-.837 1.445-.126 2.913.002 4.31.308.347.055.695.111.95.088 1.02-.089 1.818-.759 1.969-1.971l1.417-12.202c.048-.432.103-.78.073-1.12-.089-1.02-.659-1.656-1.964-1.884-2.687-.365-5.522-.459-8.413-.206-4.25.372-8.611 1.439-13.075 3.285l-9.816 1.373c-.935.082-1.626.999-1.537 2.019l6.248 43.996c.089 1.02.999 1.626 2.019 1.537zm75.685-17.072c.14-.355.203-.617.188-.787-.074-.85-1.054-1.278-1.941-1.629-2.847-1.207-4.102-4.781-4.548-9.881-.491-5.611.052-13.11.566-20.95l-.037-.425c-.089-1.02-.781-2.073-3.006-2.05l-14.818.012-.425.037c-1.02.089-1.763.411-2.221 1.051-3.442-1.155-7.689-1.726-11.939-1.354-16.832 1.473-22.771 16.811-21.878 27.012 1.197 13.686 14.391 23.497 28.587 22.254 4.335-.379 8.837-1.801 13.056-4.483 4.6 3.624 10.67 4.463 11.52 4.389 1.105-.097 1.888-.936 2.527-2.448zm-25.45-4.026c-1.881 1.021-3.721 1.525-5.336 1.666-5.526.483-9.198-3.307-9.614-8.067-.379-4.335 2.142-9.781 7.498-10.25 2.465-.216 4.865.774 6.033 2.385.053 2.565.169 4.868.362 7.078a62.65 62.65 0 0 0 1.057 7.189zm60.061 8.965c-1.364-7.761-2.929-17.818-4.065-26.884l5.973-.266.17-.015c.935-.082 1.548-.906 1.559-1.764l-.214-14.201c-.089-1.02-.929-1.803-1.864-1.721l-7.263.207c-.707-8.076 5.203-10.049 9.538-10.428l.255-.022c1.105-.097 2.391-1.066 2.442-2.441l.682-9.825-.03-.34c-.074-.85-.441-2.103-1.568-2.261-2.795-.612-5.985-.847-9.215-.564-10.796.945-22.036 7.581-22.276 23.449l.02 3.168-4.953.176c-1.02.089-1.718.921-1.721 1.864l.214 14.201c.082.935.921 1.718 1.864 1.721l6.15-.195c1.14 10.094 2.765 20.83 3.841 29.216.189 1.183 1.128 2.128 2.404 2.017l.17-.015c1.955-.171 15.815-2.326 15.815-2.326 1.105-.097 2.273-.456 2.109-2.326zm73.223-4.093c.85-.074 1.548-.906 1.474-1.756l-.015-.17-5.755-41.298c-.104-1.19-.851-1.896-2.644-1.825l-30.149 1.01c-.29-3.315.091-8.745 8.906-10.801 1.736 5.159 6.746 8.575 12.357 8.084 6.546-.573 11.433-6.397 10.86-12.942-.342-3.91-3.078-12.665-23.055-10.917-14.792 1.294-29.118 8.886-29.179 24.824l.038 2.395-5.045.099c-1.02.089-1.803.929-1.721 1.864l.214 14.201c.082.935.921 1.718 1.864 1.721l6.15-.195c1.133 10.009 2.757 20.745 3.841 29.216.189 1.183 1.128 2.128 2.404 2.017l.17-.015c1.955-.171 15.815-2.326 15.815-2.326 1.105-.097 2.273-.456 2.109-2.326l-.037-.425c-1.364-7.761-2.922-17.733-4.05-26.714l12.811-.436 3.7 27.601c.167.928.914 1.633 1.849 1.551l.17-.015zm50.705-48.037c.07-.177.048-.432.033-.603-.186-2.125-7.314-5.271-16.75-4.445-14.026 1.227-28.566 10.294-26.9 29.336 1.309 14.962 14.668 23.729 28.779 22.495 7.651-.669 15.559-4.274 21.872-11.422.931-1.109 1.274-2.082 1.185-3.102-.052-.595-.274-1.175-.574-1.663-1.606-2.686-2.76-4.127-4.543-6.884-.684-.968-1.394-1.249-1.989-1.197-.765.067-1.493.559-1.958 1.114-3.753 4.097-7.862 6.084-11.518 6.404-5.526.483-9.933-2.9-10.432-8.596-.811-9.266 6.54-10.423 8.751-10.616 2.975-.26 6.032.414 7.674 1.556.362.225.802.358 1.142.328 1.02-.089 1.881-1.021 2.132-2.071zM542.506 504.42c.323-.005.553-.244.548-.567l-.203-11.644c1.952.905 5.001 2.465 6.483 3.349.148.085.355.17.56.166s.409-.095.552-.332c3.106-5.276 3.22-5.454 3.215-5.718-.004-.235-.154-.437-.48-.608-2.576-1.334-7.259-2.426-8.139-2.41-.293.005-.556.098-.756.395l-1.488 2.138-.176-10.06c-.005-.323-.245-.582-.567-.577l-5.778.101a.59.59 0 0 0-.576.597l.432 24.724c.005.323.274.553.596.547zm31.242-.164c.148.056.266.083.412.081a1.49 1.49 0 0 0 .961-.427c4.93-4.956 6.512-11.819 6.482-13.55-.028-1.613-1.31-2.764-3.101-2.88l-16.769-.998-.059.001a.6.6 0 0 0-.577.538l-.36 4.612.001.059c.005.293.244.524.538.548l11.513.738c.176.026.47.05.477.432.011.616-1.729 5.164-3.695 8.514-.085.178-.141.296-.139.442.005.323.302.493.597.606zm3.064-19.416c.381-.006.728-.306.751-.688l.245-4.464-.001-.059c-.006-.352-.306-.699-.687-.721l-11.709-.177-.059.001c-.381.006-.699.306-.751.688l-.277 4.317.001.059c.006.352.335.728.717.721 3.022.035 8.014.271 11.711.324zm25.016 17.958a1.15 1.15 0 0 0 .53.108c.381-.006.73-.189.845-.337 4.834-5.424 8.41-12.322 8.288-19.332-.036-2.053-2.108-3.132-3.457-3.108l-.147.003-18.098 1.9c-.293.034-.552.303-.547.596l.001.059.526 4.92c.035.322.274.553.596.547l.059-.001 12.297-1.447.176-.003c.264-.005.412.081.417.345.01.587-2.558 8.083-5.405 13.032-.114.207-.169.384-.167.531.004.235.153.379.419.491zm29.456.073c.293-.005.553-.274.547-.596l-.169-9.678c-.005-.323-.274-.553-.567-.548l-2.141.037c2.708-1.162 5.239-2.409 6.835-3.405.203-.121.345-.387.341-.622-.003-.088-.003-.176-.063-.263l-2.385-3.86c-.121-.203-.446-.344-.71-.34-.088.003-.175.032-.263.063-3.547 1.852-9.651 5.097-14.021 6.875-.233.092-.347.299-.343.534.003.088.032.146.063.234l1.348 3.292c.092.262.387.345.622.341.029-.001 1.96-.298 5.72-1.713l.16 9.151a.59.59 0 0 0 .597.576zm26.391-.754c.088.028.206.055.294.053.205-.004.409-.095.523-.303 5.49-4.819 8.514-13.116 8.497-14.084-.004-.205-.095-.409-.332-.522l-4.019-1.69c-.088-.028-.177-.056-.265-.054-.205.004-.438.125-.552.332-.279.797-.674 1.743-1.126 2.748-.46-1.165-1.275-2.442-1.786-3.167-.21-.29-.476-.373-.769-.368-.088.003-.175.032-.263.034l-3.305.556c-.263.034-.376.3-.371.593.003.147.412 1.724 1.49 4.668.094.321.185.495.595.488.088-.003.205-.004.322-.035l3.041-.581c-1.557 3.225-3.608 6.752-5.648 9.223a.42.42 0 0 0-.112.295.66.66 0 0 0 .392.58zm-3.13-9.568c.439-.066.551-.391.544-.743-.019-1.085-1.232-3.352-2.044-4.482-.211-.319-.506-.402-.77-.397-.088.003-.175.032-.263.034l-3.424.471c-.263.034-.406.271-.4.594.002.117.004.205 1.402 4.67.123.321.215.554.655.546.088-.003.175-.032.263-.034zm25.942 8.847c.209.202.386.287.592.283 1.408-.025 15.078-8.507 16.526-17.979.026-.176.053-.353.049-.529-.031-1.76-1.604-2.788-2.808-2.855l-9.163-.544c-1.146-1.799-1.357-2.118-1.738-2.111-.205.004-.38.094-.524.215-1.969 1.472-5.072 3.55-8.104 4.63-.262.092-.435.272-.431.536.002.117.064.292.184.466l2.592 3.974a.81.81 0 0 0 .74.368c.645-.011 2.921-.755 6.588-2.433l3.319.206c.352.023.56.166.564.401.013.763-5.615 7.755-11.155 11.372-.319.24-.462.448-.458.653.003.147.063.263.212.407z" fill="#ffa258" paint-order="stroke fill markers"/></g></svg>